 
<svg xmlns="http://www.w3.org/2000/svg" width="512" height="512" viewBox="0 0 512 512" style="overflow: visible;" data-svgdocument="" id="_I0ov3IfCN94KM39ZrkGG9" class="fl-svgdocument" x="0" y="0" overflow="hidden"><g id="_1okLasMQs-nIAbPV2iyDb" transform="matrix(0.9471648144191779, 0, 0, 0.9471648144191779, 20.03604809954623, 12.182584088647403)" data-uid="o_f7kcbm17c_4"><path id="_Fl2Scs4_wOHmg5OewV_GS" d="M661.8 226L637 215.3c-12.6-5.4-27.4 0.4-32.8 13l-36.9 85.7L269.8 185.9c-4.2-34.1-33.4-60.6-68.6-60.6   c-38.1 0-69.2 31-69.2 69.1c0 38.1 31 69.2 69.2 69.2c12.3 0 23.9-3.2 33.9-8.9l322.4 138.9l27.1 11.7c10.8 4.7 23.3 1 30-8.2   c1.1-1.5 2-3.1 2.7-4.8l11.1-25.7l0.2-0.4l46.3-107.5C680.3 246.2 674.4 231.5 661.8 226z M201.2 231.9c-2.4 0-4.7-0.2-7-0.7   c-17.3-3.3-30.4-18.5-30.4-36.8c0-20.6 16.8-37.4 37.4-37.4c11.2 0 21.2 4.9 28 12.7c5.8 6.6 9.4 15.3 9.4 24.8   C238.6 215.1 221.8 231.9 201.2 231.9z" stroke="none" fill="#109e92" transform="matrix(0.2085196077823639, 0, 0, 0.2085196077823639, 144.90396118164062, 62.76109313964844)" stroke-width="1" data-uid="o_f7kcbm17c_5"></path><path id="_ylJJOq6xC4o6BEfUmBUra" d="M545.3 279.8L387.9 212c-6.1-2.6-8.9-9.7-6.3-15.8l21-48.7c2.6-6.1 9.7-8.9 15.8-6.3l157.4 67.8   c6.1 2.6 8.9 9.7 6.3 15.8l-21 48.7C558.5 279.6 551.4 282.4 545.3 279.8z" stroke="none" fill="#33364d" transform="matrix(0.2085196077823639, 0, 0, 0.2085196077823639, 144.7735137939453, 62.775787353515625)" stroke-width="1" data-uid="o_f7kcbm17c_6"></path><path id="_-X9hASYMVyRCYiqeY_XF9" d="M717.5 549.4l67.1-157.7c2.6-6.1 9.7-8.9 15.7-6.3l48.7 20.7c6.1 2.6 8.9 9.7 6.3 15.7l-67.1 157.7   c-2.6 6.1-9.7 8.9-15.7 6.3l-48.7-20.7C717.8 562.5 714.9 555.4 717.5 549.4z" stroke="none" fill="#109e92" transform="matrix(0.2085196077823639, 0, 0, 0.2085196077823639, 144.89785766601562, 62.73540496826172)" stroke-width="1" data-uid="o_f7kcbm17c_7"></path><path id="_C6xIPFOMuRv8iGuhwgHGI" d="M448.8 722.8l158 66.4c6.1 2.6 9 9.6 6.4 15.7l-20.5 48.8c-2.6 6.1-9.6 9-15.7 6.4l-158-66.4   c-6.1-2.6-9-9.6-6.4-15.7l20.5-48.8C435.6 723.1 442.7 720.2 448.8 722.8z" stroke="none" fill="#33364d" transform="matrix(0.2085196077823639, 0, 0, 0.2085196077823639, 144.77081298828125, 62.754337310791016)" stroke-width="1" data-uid="o_f7kcbm17c_8"></path><path id="_MlIuLZQfTU_n82zo4SSOF" d="M274.1 454.8l-65.7 158.3c-2.5 6.1-9.6 9-15.7 6.5l-48.9-20.3c-6.1-2.5-9-9.6-6.5-15.7L203 425.4   c2.5-6.1 9.6-9 15.7-6.5l48.9 20.3C273.8 441.7 276.7 448.7 274.1 454.8z" stroke="none" fill="#109e92" transform="matrix(0.2085196077823639, 0, 0, 0.2085196077823639, 144.82003784179688, 62.824527740478516)" stroke-width="1" data-uid="o_f7kcbm17c_9"></path><path id="_lvmqmwhDVeFZ_HFAdwjNl" d="M798.8 133c-38.1 0-69.2 31-69.2 69.1c0 13.9 4.1 26.8 11.2 37.6L603.7 562l-11.5 27.1    c-1.5 3.6-2.2 7.4-2 11.1c0 0.2 0 0.5 0.1 0.7c0 0.3 0 0.5 0.1 0.8c0 0 0 0.1 0 0.1c0.1 0.4 0.1 0.9 0.2 1.3    c0.1 0.4 0.1 0.8 0.2 1.2c0 0.2 0.1 0.4 0.2 0.6c0.1 0.4 0.2 0.7 0.3 1c0.1 0.4 0.2 0.8 0.4 1.2c0 0.2 0.1 0.3 0.2 0.5    c0.1 0.4 0.3 0.8 0.5 1.1c0.2 0.4 0.3 0.7 0.5 1.1c0.1 0.2 0.2 0.5 0.4 0.7c0 0.1 0.1 0.2 0.1 0.3c0.2 0.3 0.3 0.6 0.5 0.8    c0.1 0.3 0.3 0.5 0.5 0.7c0.2 0.3 0.4 0.7 0.7 1c0.2 0.2 0.3 0.5 0.5 0.7c0.3 0.3 0.5 0.6 0.8 1c0.2 0.2 0.3 0.4 0.5 0.6    c0.1 0.1 0.1 0.1 0.2 0.2c0.1 0.1 0.1 0.1 0.2 0.2c0.1 0.1 0.1 0.1 0.1 0.1c0.7 0.7 1.4 1.4 2.2 2c0 0 0 0 0 0    c0.4 0.3 0.8 0.6 1.2 0.9c1.5 1.1 3.1 2 4.8 2.7l25 10.7l1.2 0.5l107.7 45.8c12.6 5.4 27.4-0.6 32.7-13.2l10.6-24.9    c5.4-12.6-0.6-27.3-13.2-32.7l-85.9-36.5l128.2-301.3c32.1-6 56.4-34.2 56.4-68C868 164 837 133 798.8 133z M826.1 227.7    c-6.8 7.3-16.5 11.8-27.3 11.8c-20.6 0-37.4-16.8-37.4-37.4c0-0.7 0-1.5 0.1-2.2v0c1.1-19.6 17.4-35.2 37.4-35.2    c20.6 0 37.4 16.8 37.4 37.4C836.3 212 832.4 221 826.1 227.7z" stroke="none" fill="#33364d" transform="matrix(0.2085196077823639, 0, 0, 0.2085196077823639, 144.8711395263672, 62.71943283081055)" stroke-width="1" data-uid="o_f7kcbm17c_10"></path><path id="_Zaq_LSCsA51_rTNqmlLFO" d="M392.1 385.2c-1.9-1.6-4-2.9-6.3-3.8l-26-10.8l-0.3-0.1l-108.1-44.8c-12.7-5.3-27.4 0.8-32.6 13.5    l-10.4 25c-5.3 12.7 0.8 27.4 13.5 32.6l86.2 35.8L181.7 737.2c-28.7 8.4-49.7 35-49.7 66.4c0 38.1 31 69.2 69.2 69.2    c38.1 0 69.2-31 69.2-69.2c0-16.2-5.6-31.1-15-42.9l132.5-319.5c0.4-0.7 0.7-1.4 1-2.1l10.4-25C403.5 403.7 400.3 392 392.1 385.2    z M201.2 841c-20.6 0-37.4-16.8-37.4-37.4c0-7.6 2.3-14.6 6.1-20.5c6.7-10.2 18.2-16.9 31.3-16.9c19.3 0 35.2 14.7 37.2 33.5v0    c0.1 1.3 0.2 2.6 0.2 3.9C238.6 824.2 221.8 841 201.2 841z" stroke="none" fill="#33364d" transform="matrix(0.2085196077823639, 0, 0, 0.2085196077823639, 144.79991149902344, 62.76464080810547)" stroke-width="1" data-uid="o_f7kcbm17c_11"></path><path id="_z0Xkf1PDXmE11S_mmEETh" d="M795 736.3c-12.5 0-24.3 3.4-34.5 9.2L435.5 609l-27.1-11.4c-9.7-4-20.6-1.5-27.5 5.6    c-2.1 2.2-3.9 4.7-5.1 7.7L365 636.6L319.5 745c-5.3 12.7 0.7 27.4 13.3 32.7l24.9 10.5c12.7 5.3 27.4-0.7 32.7-13.3l36.2-86.1    l299.9 126c4.5 33.8 33.5 59.9 68.5 59.9c38.1 0 69.2-31 69.2-69.2C864.2 767.4 833.2 736.3 795 736.3z M795 842.9    c-11.3 0-21.4-5-28.2-12.9h0c-5.7-6.6-9.2-15.2-9.2-24.5c0-20.6 16.8-37.4 37.4-37.4c1.9 0 3.7 0.1 5.6 0.4    c18 2.7 31.9 18.3 31.9 37C832.5 826.1 815.7 842.9 795 842.9z" stroke="none" fill="#109e92" transform="matrix(0.2085196077823639, 0, 0, 0.2085196077823639, 144.7860870361328, 62.78530502319336)" stroke-width="1" data-uid="o_f7kcbm17c_12"></path></g><path id="_m77QNyT4vtXHEi9tJOdSZ" fill="#33364d" transform="matrix(0.6569137662249578, 0, 0, 0.6569137662249578, 46.619347348391734, 323.53036302795874)" text="FlexCompute" text-anchor="start" font-size="100" letter-spacing="0" side="left" offset="0" dx="0" dy="0" space="preserve" href="" font-family="Fredoka One" font-scale="contain" x="0" y="0" data-fl-textpath="" data-uid="o_f7kcbm17c_13" d="M 13.1-73.3L 52.5-73.3Q 54.8-73.3  55.95-73.15Q 57.1-73  58.55-72.2Q 60-71.4  60.6-69.5Q 61.2-67.6  61.2-64.4Q 61.2-61.2  60.6-59.3Q 60-57.4  58.5-56.65Q 57-55.9  55.85-55.75Q 54.7-55.6  52.3-55.6L 52.3-55.6L 21.7-55.6L 21.7-45.5L 41.4-45.5Q 43.8-45.5  44.95-45.35Q 46.1-45.2  47.6-44.4L 47.6-44.4Q 50.2-42.9  50.2-36.5L 50.2-36.5Q 50.2-29.5  46.4-28.2L 46.4-28.2Q 44.8-27.7  41.3-27.7L 41.3-27.7L 21.7-27.7L 21.7-8.8Q 21.7-6.4  21.55-5.3Q 21.4-4.2  20.6-2.7L 20.6-2.7Q 19.2 0  12.8 0L 12.8 0Q 5.8 0  4.6-3.8L 4.6-3.8Q 4-5.4  4-8.9L 4-8.9L 4-64.5Q 4-69.6  5.9-71.45Q 7.8-73.3  13.1-73.3L 13.1-73.3ZM 67.7-21.1L 67.7-68.7Q 67.7-71  67.85-72.15Q 68-73.3  68.7-74.8L 68.7-74.8Q 70.1-77.5  76.5-77.5L 76.5-77.5Q 82.6-77.5  84.1-74.8L 84.1-74.8Q 84.9-73.3  85.05-72.1Q 85.2-70.9  85.2-68.6L 85.2-68.6L 85.2-22.3Q 85.2-18.7  85.8-17.75Q 86.4-16.8  88.45-16.8Q 90.5-16.8  91.2-16.65Q 91.9-16.5  92.9-15.8L 92.9-15.8Q 94.9-14.5  94.9-8.7L 94.9-8.7Q 94.9-2.4  92.9-1L 92.9-1Q 90.3 0.8  80.5-0.4L 80.5-0.4Q 72.8-1.4  70.5-5.5L 70.5-5.5Q 67.7-10.4  67.7-21.1L 67.7-21.1ZM 150.2-32.65Q 150.2-26.5  147.15-23.55Q 144.1-20.6  140.4-20.6L 140.4-20.6L 116.7-20.6Q 116.7-17.8  120-15.9Q 123.3-14  126.6-14L 126.6-14Q 132.4-14  135.7-15.2L 135.7-15.2L 136.8-15.6Q 139.2-16.7  140.8-16.7L 140.8-16.7Q 144-16.7  146.3-12.2L 146.3-12.2Q 147.6-9.5  147.6-7.6L 147.6-7.6Q 147.6 1.3  126.3 1.3L 126.3 1.3Q 118.9 1.3  113.15-1.25Q 107.4-3.8  104.2-8L 104.2-8Q 97.9-16.1  97.9-26.1L 97.9-26.1Q 97.9-38.7  106.05-46.25Q 114.2-53.8  126.4-53.8L 126.4-53.8Q 140.3-53.8  146.8-44L 146.8-44Q 150.2-38.8  150.2-32.65ZM 116.5-29.7L 129.1-29.7Q 132.9-29.7  132.9-32.9L 132.9-32.9Q 132.9-35.2  131.15-36.6Q 129.4-38  126.15-38Q 122.9-38  119.7-35.35Q 116.5-32.7  116.5-29.7L 116.5-29.7ZM 204.3-37.6L 193.2-26.4L 204.3-15.2Q 207.9-11.6  207.9-9.05Q 207.9-6.5  204.3-2.95Q 200.7 0.6  198.2 0.6Q 195.7 0.6  192.1-3L 192.1-3L 181.1-14.1L 170-3Q 166.4 0.6  163.95 0.6Q 161.5 0.6  157.85-2.95Q 154.2-6.5  154.2-9.05Q 154.2-11.6  157.8-15.2L 157.8-15.2L 168.9-26.4L 157.8-37.6Q 154.2-41.2  154.2-43.75Q 154.2-46.3  157.85-49.9Q 161.5-53.5  163.95-53.5Q 166.4-53.5  170-49.9L 170-49.9L 181.1-38.7L 192.1-49.9Q 195.7-53.5  198.2-53.5Q 200.7-53.5  204.3-49.9Q 207.9-46.3  207.9-43.75Q 207.9-41.2  204.3-37.6L 204.3-37.6ZM 259.2-19.2L 259.2-19.2L 261-20.5Q 264.4-22.5  265.8-22.5L 265.8-22.5Q 268.9-22.5  272.5-16.9L 272.5-16.9Q 274.7-13.4  274.7-11.3Q 274.7-9.2  273.35-7.8Q 272-6.4  270.2-5.3Q 268.4-4.2  266.75-3.2Q 265.1-2.2  260-0.6Q 254.9 1  250.15 1Q 245.4 1  240.55-0.25Q 235.7-1.5  230.55-4.45Q 225.4-7.4  221.3-11.65Q 217.2-15.9  214.55-22.55Q 211.9-29.2  211.9-37Q 211.9-44.8  214.5-51.15Q 217.1-57.5  221.15-61.65Q 225.2-65.8  230.4-68.6L 230.4-68.6Q 240.2-74  250.1-74L 250.1-74Q 254.8-74  259.65-72.55Q 264.5-71.1  267-69.6L 267-69.6L 269.4-68.2Q 271.2-67.1  272.2-66.4L 272.2-66.4Q 274.8-64.3  274.8-61.65Q 274.8-59  272.7-56.1L 272.7-56.1Q 268.8-50.7  265.7-50.7L 265.7-50.7Q 263.9-50.7  260.6-52.9L 260.6-52.9Q 256.4-56.3  249.4-56.3L 249.4-56.3Q 242.9-56.3  236.6-51.8L 236.6-51.8Q 233.6-49.6  231.6-45.6Q 229.6-41.6  229.6-36.55Q 229.6-31.5  231.6-27.5Q 233.6-23.5  236.7-21.2L 236.7-21.2Q 242.8-16.8  249.4-16.8L 249.4-16.8Q 252.5-16.8  255.25-17.6Q 258-18.4  259.2-19.2ZM 279.8-26.3Q 279.8-38.3  288.2-46.1Q 296.6-53.9  307.4-53.9Q 318.2-53.9  326.5-46.15Q 334.8-38.4  334.8-26.4L 334.8-26.4Q 334.8-18.1  330.5-11.65Q 326.2-5.2  320.05-2.15Q 313.9 0.9  307.3 0.9Q 300.7 0.9  294.5-2.35Q 288.3-5.6  284.05-11.95Q 279.8-18.3  279.8-26.3L 279.8-26.3ZM 300.7-19.15Q 303.9-16.7  307.2-16.7Q 310.5-16.7  313.8-19.2Q 317.1-21.7  317.1-26.6Q 317.1-31.5  314-33.9Q 310.9-36.3  307.3-36.3Q 303.7-36.3  300.6-33.8Q 297.5-31.3  297.5-26.45Q 297.5-21.6  300.7-19.15ZM 358.5-45.7L 358.5-45.7Q 363.2-52.8  369.8-52.8L 369.8-52.8Q 380-52.8  385-44.1L 385-44.1Q 386.1-45.6  387.65-47.25Q 389.2-48.9  392.6-50.85Q 396-52.8  399.6-52.8L 399.6-52.8Q 407.6-52.8  413-46.65Q 418.4-40.5  418.4-26.3L 418.4-26.3L 418.4-8.8Q 418.4-6.5  418.25-5.35Q 418.1-4.2  417.3-2.7L 417.3-2.7Q 416 0  409.6 0L 409.6 0Q 403.3 0  401.9-2.8L 401.9-2.8Q 401.2-4.3  401.05-5.45Q 400.9-6.6  400.9-8.9L 400.9-8.9L 400.9-26.4Q 400.9-35.1  394.7-35.1L 394.7-35.1Q 391.2-35.1  389.95-32.8Q 388.7-30.5  388.7-26.3L 388.7-26.3L 388.7-8.8Q 388.7-6.4  388.55-5.3Q 388.4-4.2  387.6-2.7L 387.6-2.7Q 386.2 0  379.8 0L 379.8 0Q 373.5 0  372.1-2.8L 372.1-2.8Q 371.4-4.3  371.25-5.45Q 371.1-6.6  371.1-8.9L 371.1-8.9L 371.1-26.4Q 371.1-35.1  364.9-35.1L 364.9-35.1Q 358.9-35.1  358.9-26.4L 358.9-26.4L 358.9-8.7Q 358.9-6.4  358.75-5.25Q 358.6-4.1  357.8-2.6L 357.8-2.6Q 356.3 0  350 0L 350 0Q 343.7 0  342.3-2.7L 342.3-2.7Q 341.6-4.2  341.45-5.3Q 341.3-6.4  341.3-8.8L 341.3-8.8L 341.3-44Q 341.3-46.3  341.45-47.45Q 341.6-48.6  342.4-50L 342.4-50Q 343.9-52.7  349.5-52.7Q 355.1-52.7  356.8-50.9Q 358.5-49.1  358.5-45.7ZM 426.4 14.3L 426.4 14.3L 426.4-44.1Q 426.4-46.4  426.55-47.5Q 426.7-48.6  427.4-50L 427.4-50Q 428.8-52.7  434.1-52.7Q 439.4-52.7  441.25-51.35Q 443.1-50  443.4-47.4L 443.4-47.4Q 447.2-52.6  455.35-52.6Q 463.5-52.6  470.8-44.9Q 478.1-37.2  478.1-27Q 478.1-16.8  470.85-9.1Q 463.6-1.4  455.4-1.4Q 447.2-1.4  443.5-6L 443.5-6L 443.5 14.2Q 443.5 16.5  443.35 17.6Q 443.2 18.7  442.45 20.15Q 441.7 21.6  439.9 22.2Q 438.1 22.8  435 22.8Q 431.9 22.8  430.05 22.2Q 428.2 21.6  427.45 20.2Q 426.7 18.8  426.55 17.7Q 426.4 16.6  426.4 14.3ZM 446.2-32.8Q 443.9-30.1  443.9-26.9Q 443.9-23.7  446.25-21.05Q 448.6-18.4  452.25-18.4Q 455.9-18.4  458.45-21Q 461-23.6  461-26.9Q 461-30.2  458.6-32.85Q 456.2-35.5  452.35-35.5Q 448.5-35.5  446.2-32.8ZM 508-0.2L 508-0.2Q 497.9-0.2  491.25-7.85Q 484.6-15.5  484.6-26.5L 484.6-26.5L 484.6-44Q 484.6-46.4  484.75-47.5Q 484.9-48.6  485.6-50.1L 485.6-50.1Q 487-52.8  493.4-52.8L 493.4-52.8Q 500.4-52.8  501.6-49L 501.6-49Q 502.2-47.4  502.2-43.9L 502.2-43.9L 502.2-26.4Q 502.2-22.3  504.55-20Q 506.9-17.7  510.85-17.7Q 514.8-17.7  517.25-20.1Q 519.7-22.5  519.7-26.4L 519.7-26.4L 519.7-44.1Q 519.7-46.4  519.85-47.55Q 520-48.7  520.8-50.2L 520.8-50.2Q 522.1-52.8  528.5-52.8L 528.5-52.8Q 534.8-52.8  536.2-50.1L 536.2-50.1Q 536.9-48.6  537.05-47.45Q 537.2-46.3  537.2-44L 537.2-44L 537.2-8.6Q 537.2-6.4  537.05-5.25Q 536.9-4.1  536.1-2.7L 536.1-2.7Q 534.6-0.1  528.4-0.1L 528.4-0.1Q 522.3-0.1  520.9-2.5L 520.9-2.5Q 519.9-4.2  519.9-6.6L 519.9-6.6Q 519.5-5.9  518.1-4.6Q 516.7-3.3  515.4-2.4L 515.4-2.4Q 512-0.2  508-0.2ZM 575.8-35L 575.8-35L 569.3-35.4L 569.3-21.6Q 569.3-18.9  570.15-17.7Q 571-16.5  573.35-16.5Q 575.7-16.5  576.95-16.35Q 578.2-16.2  579.6-15.4L 579.6-15.4Q 581.9-14.1  581.9-8.7L 581.9-8.7Q 581.9-2.4  579.1-1L 579.1-1Q 577.6-0.3  576.45-0.15Q 575.3 0  573.1 0L 573.1 0Q 562.7 0  557.3-4.7Q 551.9-9.4  551.9-20.6L 551.9-20.6L 551.9-35.4Q 550-35.1  547.8-35.1Q 545.6-35.1  544.15-36.8Q 542.7-38.5  542.7-42.6Q 542.7-46.7  543.2-48.55Q 543.7-50.4  544.6-51.2L 544.6-51.2Q 546.2-52.5  548.6-52.5L 548.6-52.5L 551.9-52.1L 551.9-62.4Q 551.9-64.7  552.05-65.8Q 552.2-66.9  553-68.2L 553-68.2Q 554.3-70.7  560.7-70.7L 560.7-70.7Q 567.5-70.7  568.8-67L 568.8-67Q 569.3-65.4  569.3-61.9L 569.3-61.9L 569.3-52.1Q 573.7-52.5  575.95-52.5Q 578.2-52.5  579.35-52.35Q 580.5-52.2  582-51.4L 582-51.4Q 584.6-50.1  584.6-43.7L 584.6-43.7Q 584.6-37.4  581.9-36L 581.9-36Q 580.4-35.3  579.25-35.15Q 578.1-35  575.8-35ZM 638.9-32.65Q 638.9-26.5  635.85-23.55Q 632.8-20.6  629.1-20.6L 629.1-20.6L 605.4-20.6Q 605.4-17.8  608.7-15.9Q 612-14  615.3-14L 615.3-14Q 621.1-14  624.4-15.2L 624.4-15.2L 625.5-15.6Q 627.9-16.7  629.5-16.7L 629.5-16.7Q 632.7-16.7  635-12.2L 635-12.2Q 636.3-9.5  636.3-7.6L 636.3-7.6Q 636.3 1.3  615 1.3L 615 1.3Q 607.6 1.3  601.85-1.25Q 596.1-3.8  592.9-8L 592.9-8Q 586.6-16.1  586.6-26.1L 586.6-26.1Q 586.6-38.7  594.75-46.25Q 602.9-53.8  615.1-53.8L 615.1-53.8Q 629-53.8  635.5-44L 635.5-44Q 638.9-38.8  638.9-32.65ZM 605.2-29.7L 617.8-29.7Q 621.6-29.7  621.6-32.9L 621.6-32.9Q 621.6-35.2  619.85-36.6Q 618.1-38  614.85-38Q 611.6-38  608.4-35.35Q 605.2-32.7  605.2-29.7L 605.2-29.7Z" style=""></path></svg>
